<?xml version="1.0" standalone="no"?>
<!DOCTYPE svg PUBLIC "-//W3C//DTD SVG 20010904//EN"
 "http://www.w3.org/TR/2001/REC-SVG-20010904/DTD/svg10.dtd">
<svg version="1.0" xmlns="http://www.w3.org/2000/svg"
 width="998.000000pt" height="998.000000pt" viewBox="0 0 998.000000 998.000000"
 preserveAspectRatio="xMidYMid meet">

<g transform="translate(0.000000,998.000000) scale(0.100000,-0.100000)"
fill="#000000" stroke="none">
<path d="M5090 6188 c0 -5 21 -8 48 -8 58 0 108 -29 119 -67 10 -36 10 -1589
0 -1625 -9 -33 -45 -59 -95 -69 -21 -3 71 -7 203 -7 164 0 226 3 195 9 -25 5
-55 20 -70 34 l-25 25 0 820 0 820 26 26 c20 20 42 28 85 34 39 5 -34 8 -214
11 -149 2 -272 1 -272 -3z"/>
<path d="M6245 6190 c-99 -3 -164 -7 -145 -8 43 -2 80 -26 80 -51 0 -11 -21
-47 -46 -82 -25 -35 -33 -50 -19 -34 112 129 171 165 267 165 31 0 59 4 62 8
3 5 0 8 -7 8 -7 -1 -93 -3 -192 -6z"/>
<path d="M4295 6003 c-115 -15 -255 -83 -319 -154 -106 -118 -131 -283 -65
-424 28 -60 114 -154 193 -210 34 -24 152 -97 263 -163 111 -66 228 -140 260
-165 179 -138 263 -289 263 -472 0 -228 -106 -402 -317 -517 -37 -21 -63 -38
-58 -38 18 0 159 81 213 122 74 57 145 138 193 219 23 38 43 69 44 69 2 0 32
-17 67 -39 241 -146 515 -222 796 -220 76 1 147 4 160 7 13 4 -50 7 -140 7
-175 0 -238 10 -380 61 -136 49 -311 153 -413 246 l-50 46 3 128 c3 108 0 140
-17 194 -62 197 -197 322 -597 555 -223 129 -320 219 -354 329 -16 51 -8 150
18 208 37 84 125 162 214 189 18 6 67 14 108 18 l75 8 -65 0 c-36 0 -78 -2
-95 -4z"/>
<path d="M4490 5990 c34 -11 60 -11 35 0 -11 5 -29 8 -40 8 -16 0 -15 -2 5 -8z"/>
<path d="M4600 5949 c91 -50 153 -121 187 -213 8 -22 21 -88 28 -146 l13 -105
0 200 c0 110 -2 193 -3 185 -2 -8 -6 -32 -10 -52 -7 -45 -24 -49 -47 -10 -37
62 -174 172 -213 172 -5 0 15 -14 45 -31z"/>
<path d="M6064 5958 l-19 -23 23 19 c12 11 22 21 22 23 0 8 -8 2 -26 -19z"/>
<path d="M6010 5890 c-17 -22 -29 -40 -27 -40 3 0 20 18 37 40 17 22 29 40 27
40 -3 0 -20 -18 -37 -40z"/>
<path d="M5959 5823 c-13 -16 -12 -17 4 -4 9 7 17 15 17 17 0 8 -8 3 -21 -13z"/>
<path d="M5854 5688 c-48 -62 -94 -121 -102 -130 -8 -10 -13 -18 -9 -18 3 0
36 39 73 88 37 48 83 106 102 130 19 23 32 42 29 42 -3 0 -45 -51 -93 -112z"/>
<path d="M5714 5508 l-19 -23 23 19 c21 18 27 26 19 26 -2 0 -12 -10 -23 -22z"/>
<path d="M5679 5463 c-13 -16 -12 -17 4 -4 9 7 17 15 17 17 0 8 -8 3 -21 -13z"/>
<path d="M5611 5376 c-28 -36 -51 -68 -51 -71 0 -3 69 -5 153 -5 253 0 407
-28 557 -102 150 -73 249 -196 286 -355 16 -67 15 -249 0 -313 l-7 -25 13 25
c8 16 12 75 13 170 0 122 -4 158 -23 225 -56 194 -176 329 -367 415 -85 38
-250 78 -355 85 -47 3 -104 8 -126 11 -41 5 -42 4 -93 -60z"/>
<path d="M3901 5159 c-18 -6 -31 -12 -29 -14 2 -3 24 1 49 9 49 16 33 20 -20
5z"/>
<path d="M3775 5106 c-93 -44 -183 -114 -233 -179 -44 -56 -97 -162 -107 -212
-3 -16 5 -2 18 32 61 157 168 274 321 349 50 24 86 44 81 44 -6 0 -42 -15 -80
-34z"/>
<path d="M3417 4651 c-4 -18 -7 -43 -6 -55 1 -11 5 -1 10 24 5 25 7 49 6 55
-2 5 -7 -5 -10 -24z"/>
<path d="M3405 4455 c5 -164 44 -276 138 -390 78 -96 233 -208 317 -229 14 -4
-4 7 -39 24 -187 88 -325 242 -386 430 -10 30 -22 107 -26 170 l-7 115 3 -120z"/>
<path d="M6503 4411 c-48 -100 -132 -198 -220 -257 -77 -51 -88 -62 -33 -33
25 13 86 65 135 114 70 70 99 107 128 168 21 42 37 81 35 86 -2 4 -22 -30 -45
-78z"/>
<path d="M6130 4070 c-8 -5 -10 -10 -5 -10 6 0 17 5 25 10 8 5 11 10 5 10 -5
0 -17 -5 -25 -10z"/>
<path d="M6075 4050 c-13 -6 -15 -9 -5 -9 8 0 22 4 30 9 18 12 2 12 -25 0z"/>
<path d="M4450 3845 c-19 -7 -28 -14 -20 -14 8 0 29 6 45 14 39 17 21 18 -25
0z"/>
<path d="M4360 3820 c-20 -6 -21 -8 -5 -8 11 0 29 3 40 8 25 11 -1 11 -35 0z"/>
<path d="M3928 3813 c7 -3 16 -2 19 1 4 3 -2 6 -13 5 -11 0 -14 -3 -6 -6z"/>
<path d="M3968 3803 c7 -3 16 -2 19 1 4 3 -2 6 -13 5 -11 0 -14 -3 -6 -6z"/>
<path d="M4298 3803 c6 -2 18 -2 25 0 6 3 1 5 -13 5 -14 0 -19 -2 -12 -5z"/>
<path d="M4018 3793 c12 -2 30 -2 40 0 9 3 -1 5 -23 4 -22 0 -30 -2 -17 -4z"/>
<path d="M4130 3790 c-54 -7 -54 -7 -10 -7 25 -1 72 3 105 7 l60 7 -50 0 c-27
0 -75 -3 -105 -7z"/>
</g>
</svg>
